<?xml version="1.0" encoding="UTF-8"?>
<svg width="311px" height="124px" viewBox="0 0 311 124" version="1.1" xmlns="http://www.w3.org/2000/svg" xmlns:xlink="http://www.w3.org/1999/xlink">
    <!-- Generator: Sketch 49.3 (51167) - http://www.bohemiancoding.com/sketch -->
    <title>logo</title>
    <desc>Created with Sketch.</desc>
    <defs>
        <linearGradient x1="49.9990999%" y1="18.7650713%" x2="49.9990999%" y2="64.3941626%" id="linearGradient-1">
            <stop stop-color="#0099D8" offset="0%"></stop>
            <stop stop-color="#00BCE7" offset="100%"></stop>
        </linearGradient>
    </defs>
    <g id="symbols" stroke="none" stroke-width="1" fill="none" fill-rule="evenodd">
        <g id="page-template-slide-home" transform="translate(-140.000000, -93.000000)">
            <g id="page-template-slide" transform="translate(140.000000, -38.000000)">
                <g id="logo" transform="translate(0.000000, 131.000000)">
                    <g id="aims">
                        <path d="M152.746084,102.54401 C152.761426,102.71352 152.700619,102.881083 152.58009,103.001433 C152.459562,103.121782 152.29175,103.182499 152.121989,103.167181 L148.221023,103.167181 C148.049615,103.189521 147.877538,103.131089 147.755306,103.009038 C147.633074,102.886987 147.574555,102.715165 147.596928,102.54401 L147.596928,99.4281708 C147.64902,99.0010727 147.501328,98.5738045 147.19649,98.2697198 C146.891653,97.965635 146.463605,97.8185844 146.035924,97.8710219 L144.008788,97.8710219 C143.579558,97.8115933 143.147232,97.9563574 142.840665,98.2621669 C142.534098,98.5679765 142.388692,98.9995185 142.447784,99.4281708 L142.447784,117.189284 C142.388825,117.617906 142.534276,118.049365 142.84081,118.35514 C143.147344,118.660915 143.579588,118.80572 144.008788,118.746422 L146.035924,118.746422 C146.465124,118.80572 146.897368,118.660915 147.203902,118.35514 C147.510436,118.049365 147.655887,117.617906 147.596928,117.189284 L147.596928,114.07339 C147.574555,113.902236 147.633074,113.730414 147.755306,113.608363 C147.877538,113.486312 148.049615,113.42788 148.221023,113.45022 L152.121989,113.45022 C152.29175,113.434902 152.459562,113.495618 152.58009,113.615968 C152.700619,113.736318 152.761426,113.903881 152.746084,114.07339 L152.746084,118.279384 C152.746084,121.940295 150.756116,123.887893 147.129251,123.887893 L142.760598,123.887893 C139.093476,123.887893 137.103508,121.940295 137.103508,118.279384 L137.103508,98.3380275 C137.103508,94.6771054 139.093476,92.7295183 142.760598,92.7295183 L147.129251,92.7295183 C150.756116,92.7295183 152.746084,94.6771054 152.746084,98.3380275 L152.746084,102.54401 Z" id="Shape" fill="#0099D8" fill-rule="nonzero"></path>
                        <path d="M156.526041,98.3380167 C156.526041,94.6770946 158.47735,92.7295075 162.142874,92.7295075 L166.511527,92.7295075 C170.178649,92.7295075 172.12836,94.6770946 172.12836,98.3380167 L172.12836,118.279373 C172.12836,121.940285 170.178649,123.887882 166.511527,123.887882 L162.142874,123.887882 C158.477296,123.887882 156.526041,121.940285 156.526041,118.279373 L156.526041,98.3380167 Z M165.537482,118.863888 C165.966638,118.922938 166.398721,118.777875 166.704973,118.471927 C167.011225,118.165978 167.156291,117.734465 167.096942,117.305973 L167.096942,99.3114275 C167.14941,98.8844572 167.002095,98.4571412 166.697542,98.1528875 C166.392989,97.8486337 165.965112,97.7013245 165.537482,97.7535023 L163.274957,97.7535023 C162.847181,97.7012623 162.419126,97.84849 162.114314,98.1527009 C161.809502,98.4569117 161.661845,98.8842597 161.713953,99.3114275 L161.713953,117.305973 C161.654966,117.734667 161.800376,118.166213 162.106887,118.472117 C162.413397,118.778021 162.845656,118.923001 163.274957,118.863888 L165.537482,118.863888 Z" id="Shape" fill="#0099D8" fill-rule="nonzero"></path>
                        <path d="M198.133035,92.7295075 C198.34702,92.7032719 198.561181,92.7769032 198.713629,92.9291226 C198.866076,93.081342 198.93982,93.295185 198.913548,93.5088529 L198.913548,123.108548 C198.939815,123.322215 198.86607,123.536055 198.713624,123.688273 C198.561178,123.840492 198.347019,123.914124 198.133035,123.887893 L194.506182,123.887893 C194.29226,123.913857 194.078265,123.840137 193.925886,123.687984 C193.773507,123.53583 193.699677,123.322153 193.72568,123.108548 L193.72568,105.582528 L193.453123,105.582528 L189.59087,123.186635 C189.535565,123.610127 189.159618,123.917417 188.732931,123.887893 L186.821944,123.887893 C186.395579,123.916409 186.020235,123.609612 185.964005,123.186635 L182.101763,105.582528 L181.829206,105.582528 L181.829206,123.10858 C181.855477,123.322246 181.781735,123.536087 181.62929,123.688306 C181.476845,123.840525 181.262687,123.914158 181.048704,123.887926 L177.460552,123.887926 C177.24663,123.91389 177.032636,123.840169 176.880257,123.688016 C176.727878,123.535863 176.654048,123.322185 176.68005,123.10858 L176.68005,93.5088529 C176.654048,93.2952479 176.727878,93.0815703 176.880257,92.9294171 C177.032636,92.7772639 177.24663,92.7035435 177.460552,92.7295075 L182.609708,92.7295075 C183.036072,92.7009869 183.411416,93.0077874 183.467636,93.4307652 L187.797566,112.827061 L192.127507,93.4307652 C192.183275,93.0075361 192.558913,92.700495 192.985435,92.7295075 L198.133035,92.7295075 Z" id="Shape" fill="#0099D8" fill-rule="nonzero"></path>
                        <path d="M203.782394,93.3526668 C203.767052,93.1831584 203.827859,93.0155957 203.948388,92.8952477 C204.068916,92.7748997 204.236729,92.7141854 204.406489,92.7295075 L213.76788,92.7295075 C217.435002,92.7295075 219.384713,94.6770946 219.384713,98.3380167 L219.384713,107.841711 C219.384713,111.46319 217.435002,113.45022 213.76788,113.45022 L209.087956,113.45022 L209.087956,123.264723 C209.11033,123.435878 209.051811,123.607699 208.929579,123.72975 C208.807347,123.851801 208.63527,123.910233 208.463862,123.887893 L204.406489,123.887893 C204.236728,123.903212 204.068916,123.842495 203.948388,123.722145 C203.827859,123.601796 203.767052,123.434232 203.782394,123.264723 L203.782394,93.3526668 Z M212.51969,108.308695 C212.947487,108.361035 213.375601,108.213842 213.680438,107.909609 C213.985274,107.605376 214.132899,107.17797 214.080694,106.750781 L214.080694,99.4281708 C214.139512,98.999578 213.994016,98.5682037 213.687518,98.2624621 C213.381019,97.9567205 212.948861,97.8118668 212.51969,97.8710219 L209.087956,97.8710219 L209.087956,108.308695 L212.51969,108.308695 Z" id="Shape" fill="#0099D8" fill-rule="nonzero"></path>
                        <path d="M235.675897,123.887861 C235.355141,123.902665 235.079797,123.66218 235.051802,123.342778 L233.960063,117.656182 L227.016059,117.656182 L225.963,123.342778 C225.935006,123.66218 225.659661,123.902665 225.338905,123.887861 L221.165382,123.887861 C220.736418,123.887861 220.541298,123.654363 220.658992,123.226035 L227.133753,93.2745468 C227.149011,93.1143996 227.227486,92.9669045 227.351847,92.8646338 C227.476208,92.7623631 227.636226,92.7137302 227.796561,92.7294751 L233.218274,92.7294751 C233.378609,92.7137302 233.538626,92.7623631 233.662988,92.8646338 C233.787349,92.9669045 233.865824,93.1143996 233.881082,93.2745468 L240.355842,123.226035 C240.434824,123.654363 240.278416,123.887861 239.810729,123.887861 L235.675897,123.887861 Z M230.488028,99.5456904 L227.99166,113.137859 L232.984397,113.137859 L230.488028,99.5456904 Z" id="Shape" fill="#0099D8" fill-rule="nonzero"></path>
                        <path d="M259.372542,92.7295075 C259.542366,92.7139204 259.710338,92.7745491 259.830928,92.8949605 C259.951518,93.0153719 260.012237,93.1830942 259.996626,93.3526668 L259.996626,123.264702 C260.012236,123.434275 259.951518,123.601998 259.830928,123.722411 C259.710338,123.842824 259.542368,123.903455 259.372542,123.887872 L255.511834,123.887872 C255.185366,123.9121 254.888727,123.698428 254.808768,123.381445 L248.841942,106.750781 L248.646822,106.750781 L248.646822,123.264723 C248.669195,123.435878 248.610676,123.607699 248.488444,123.72975 C248.366212,123.851801 248.194135,123.910233 248.022727,123.887893 L243.965343,123.887893 C243.795518,123.903477 243.627547,123.842845 243.506957,123.722432 C243.386368,123.602019 243.325649,123.434297 243.341259,123.264723 L243.341259,93.3526883 C243.325649,93.1831158 243.386367,93.0153935 243.506957,92.8949821 C243.627548,92.7745707 243.795519,92.7139419 243.965343,92.729529 L247.827596,92.729529 C248.153831,92.7049085 248.45026,92.9188953 248.529117,93.235945 L254.458775,109.788522 L254.692619,109.788522 L254.692619,93.3526668 C254.670245,93.181513 254.728763,93.0096918 254.850996,92.8876422 C254.973229,92.7655926 255.145306,92.7071637 255.316713,92.7295075 L259.372542,92.7295075 Z" id="Shape" fill="#0099D8" fill-rule="nonzero"></path>
                        <path d="M269.54695,92.7295075 C269.716775,92.7139209 269.884747,92.7745494 270.005339,92.8949603 C270.125931,93.0153712 270.186652,93.1830931 270.171045,93.3526668 L270.171045,123.264702 C270.186656,123.434277 270.125936,123.602002 270.005343,123.722415 C269.884751,123.842829 269.716777,123.903459 269.54695,123.887872 L265.489577,123.887872 C265.318169,123.910212 265.146092,123.85178 265.02386,123.729729 C264.901628,123.607678 264.843109,123.435856 264.865483,123.264702 L264.865483,93.3526668 C264.843109,93.181513 264.901627,93.0096918 265.02386,92.8876422 C265.146093,92.7655926 265.31817,92.7071637 265.489577,92.7295075 L269.54695,92.7295075 Z" id="Shape" fill="#0099D8" fill-rule="nonzero"></path>
                        <path d="M290.603497,97.2478518 C290.603497,97.636759 290.447079,97.9096776 289.979402,97.9096776 L280.227759,97.9096776 L280.227759,105.699282 L287.678153,105.699282 C287.854367,105.686156 288.0271,105.753154 288.148235,105.881612 C288.269369,106.01007 288.325962,106.186262 288.302248,106.361108 L288.302248,110.216861 C288.325982,110.391781 288.269425,110.568059 288.148312,110.696644 C288.0272,110.825229 287.854459,110.892399 287.678153,110.879463 L280.227759,110.879463 L280.227759,118.746368 L289.979424,118.746368 C290.447101,118.746368 290.603519,118.94121 290.603519,119.369538 L290.603519,123.264723 C290.603519,123.654396 290.447101,123.887893 289.979424,123.887893 L275.625273,123.887893 C275.460991,123.895073 275.301752,123.830303 275.189255,123.710545 C275.076759,123.590786 275.022209,123.427967 275.039891,123.264723 L275.039891,93.3526883 C275.022209,93.1894458 275.076759,93.0266273 275.189256,92.9068702 C275.301753,92.7871131 275.460992,92.7223459 275.625273,92.729529 L289.979424,92.729529 C290.447101,92.729529 290.603519,92.9630157 290.603519,93.3526883 L290.603497,97.2478518 Z" id="Shape" fill="#0099D8" fill-rule="nonzero"></path>
                        <path d="M304.051202,92.7295075 C307.718324,92.7295075 309.668035,94.6770946 309.668035,98.3380167 L309.668035,102.466678 C309.690408,102.637832 309.631889,102.809654 309.509657,102.931705 C309.387425,103.053756 309.215348,103.112188 309.04394,103.089848 L304.988111,103.089848 C304.818284,103.105435 304.65031,103.044805 304.529718,102.924391 C304.409126,102.803978 304.348406,102.636253 304.364016,102.466678 L304.364016,99.4281384 C304.422834,98.9995457 304.277338,98.5681714 303.970839,98.2624298 C303.664341,97.9566882 303.232182,97.8118344 302.803012,97.8709896 L300.930738,97.8709896 C300.504817,97.8255687 300.081178,97.974966 299.778293,98.2774015 C299.475409,98.579837 299.32579,99.0028486 299.371278,99.4281384 L299.371278,104.803183 L308.653689,107.841722 C309.283877,108.031012 309.702825,108.625926 309.668035,109.282117 L309.668035,118.279395 C309.668035,121.940306 307.718324,123.887904 304.051202,123.887904 L299.682548,123.887904 C296.055683,123.887904 294.065715,121.940306 294.065715,118.279395 L294.065715,114.190134 C294.043469,114.019007 294.102029,113.847263 294.22423,113.725243 C294.346431,113.603223 294.51843,113.54475 294.68981,113.566963 L298.747183,113.566963 C299.176147,113.566963 299.371278,113.76105 299.371278,114.190134 L299.371278,117.18923 C299.318873,117.616119 299.466239,118.043325 299.770807,118.347439 C300.075375,118.651554 300.503216,118.798699 300.930738,118.746368 L302.803012,118.746368 C303.232211,118.805666 303.664456,118.660861 303.970989,118.355086 C304.277523,118.049311 304.422974,117.617852 304.364016,117.18923 L304.364016,112.009049 L295.118774,108.97051 C294.46432,108.808487 294.0205,108.201094 294.065715,107.529339 L294.065715,98.3380167 C294.065715,94.6770946 296.055683,92.7295075 299.682548,92.7295075 L304.051202,92.7295075 Z" id="Shape" fill="#0099D8" fill-rule="nonzero"></path>
                        <polygon id="Shape" fill="#00468B" fill-rule="nonzero" points="94.2837535 0.424834783 94.2837535 51.0534957 107.614639 78.6505043 119.530906 78.6505043 119.530906 0.424834783"></polygon>
                        <path d="M311,25.7393593 L311,10.6082539 C311,4.74947705 306.243474,0 300.376002,0 L240.192751,0 C234.325279,0 229.568753,4.74947705 229.568753,10.6082539 L229.568753,38.1373322 C229.568755,40.548882 231.305592,42.6110816 233.684946,43.0246143 L285.75302,52.0739941 L285.75302,60.2938678 L254.815733,60.2938678 L254.815733,53.8252083 L229.568753,53.8252083 L229.568753,68.466697 C229.568753,74.3254739 234.325279,79.074951 240.192751,79.074951 L300.376002,79.074951 C303.193662,79.074951 305.895917,77.9572988 307.888303,75.9678653 C309.880689,73.9784318 311,71.2801809 311,68.466697 L311,41.4071259 C310.999996,38.9948757 309.262172,36.9322926 306.881971,36.5195311 L254.815733,27.4905736 L254.815733,18.848 L285.75302,18.848 L285.75302,25.7393809 L311,25.7393593 Z" id="Shape" fill="#00468B" fill-rule="nonzero"></path>
                        <polygon id="Shape" fill="#00468B" fill-rule="nonzero" points="193.765958 0.424834783 174.54983 29.0505043 155.333701 0.424834783 127.562913 0.424834783 127.562913 78.6505043 152.808986 78.6505043 152.808986 33.5813565 174.258267 63.9527304 174.54983 63.9527304 174.841392 63.9527304 196.290674 33.5813565 196.290674 78.6505043 221.536747 78.6505043 221.536747 0.424834783"></polygon>
                        <polygon id="Shape" fill="#00468B" fill-rule="nonzero" points="61.7950521 0.424834783 37.7875799 0.424834783 0 78.6494261 25.9166667 78.6494261 49.791316 29.0505043 73.6659653 78.6494261 99.5837118 78.6494261"></polygon>
                        <polygon id="Shape" fill="url(#linearGradient-1)" fill-rule="nonzero" points="32.9962361 78.6494261 49.791316 43.7590609 66.5874757 78.6494261 49.791316 97.9179478"></polygon>
                    </g>
                </g>
            </g>
        </g>
    </g>
</svg>